<?xml version="1.0" standalone="no"?>
<!DOCTYPE svg PUBLIC "-//W3C//DTD SVG 20010904//EN"
 "http://www.w3.org/TR/2001/REC-SVG-20010904/DTD/svg10.dtd">
<svg version="1.0" xmlns="http://www.w3.org/2000/svg"
 width="82.000000pt" height="89.000000pt" viewBox="0 0 82.000000 89.000000"
 preserveAspectRatio="xMidYMid meet">
<metadata>
Created by potrace 1.16, written by Peter Selinger 2001-2019
</metadata>
<g transform="translate(0.000000,89.000000) scale(0.100000,-0.100000)"
fill="#000000" stroke="none">
<path d="M390 751 l0 -101 -185 0 -185 0 0 -220 0 -220 185 0 185 0 0 -100 c0
-76 3 -100 13 -100 14 0 387 403 387 418 0 15 -369 417 -385 420 -12 3 -15
-14 -15 -97z m219 -144 l162 -178 -52 -57 c-29 -31 -109 -119 -178 -195 l-126
-139 -3 96 -3 96 -184 0 -185 0 0 200 0 200 185 0 185 0 0 97 c0 96 0 97 19
78 10 -11 91 -100 180 -198z"/>
</g>
</svg>
