<?xml version="1.0" encoding="UTF-8"?>
<svg width="34px" height="34px" viewBox="0 0 34 34" version="1.1" xmlns="http://www.w3.org/2000/svg" xmlns:xlink="http://www.w3.org/1999/xlink">
    <!-- Generator: Sketch 64 (93537) - https://sketch.com -->
    <title>help-24px</title>
    <desc>Created with Sketch.</desc>
    <g id="Page-1" stroke="none" stroke-width="1" fill="none" fill-rule="evenodd">
        <g id="TONY-AI---Dashboard" transform="translate(-1914.000000, -41.000000)">
            <g id="help-24px" transform="translate(1911.000000, 37.000000)">
                <polygon id="Path" points="0 0 41 0 41 41 0 41"></polygon>
                <path d="M20,4 C10.616,4 3,11.616 3,21 C3,30.384 10.616,38 20,38 C29.384,38 37,30.384 37,21 C37,11.616 29.384,4 20,4 Z M21.7,32.9 L18.3,32.9 L18.3,29.5 L21.7,29.5 L21.7,32.9 Z M25.219,19.725 L23.689,21.289 C22.465,22.53 21.7,23.55 21.7,26.1 L18.3,26.1 L18.3,25.25 C18.3,23.38 19.065,21.68 20.289,20.439 L22.397,18.297 C23.026,17.685 23.4,16.835 23.4,15.9 C23.4,14.03 21.87,12.5 20,12.5 C18.13,12.5 16.6,14.03 16.6,15.9 L13.2,15.9 C13.2,12.143 16.243,9.1 20,9.1 C23.757,9.1 26.8,12.143 26.8,15.9 C26.8,17.396 26.188,18.756 25.219,19.725 Z" id="Shape" fill="#8792A2" fill-rule="nonzero"></path>
            </g>
        </g>
    </g>
</svg>