<?xml version="1.0" encoding="UTF-8"?>
<svg width="148px" height="60px" viewBox="0 0 148 60" version="1.1" xmlns="http://www.w3.org/2000/svg" xmlns:xlink="http://www.w3.org/1999/xlink">
    <!-- Generator: Sketch 64 (93537) - https://sketch.com -->
    <title>Group 8</title>
    <desc>Created with Sketch.</desc>
    <g id="Page-1" stroke="none" stroke-width="1" fill="none" fill-rule="evenodd">
        <g id="TONY-AI---Dashboard" transform="translate(-1859.000000, -323.000000)">
            <g id="Group-8" transform="translate(1860.000000, 324.000000)">
                <path d="M10,0 L136,0 C141.522847,-1.01453063e-15 146,4.4771525 146,10 L146,48 C146,53.5228475 141.522847,58 136,58 L14.7320807,58 L7.36604036,58 C3.2978886,58 4.98204903e-16,54.7021114 0,50.6339596 L0,10 C-6.76353751e-16,4.4771525 4.4771525,1.01453063e-15 10,0 Z" id="Rectangle" stroke="#E3E8EE" fill="#1FA2FF"></path>
                <text id="RUN" font-family="SFProDisplay-Regular, SF Pro Display" font-size="24" font-weight="normal" letter-spacing="0.289411762" fill="#FFFFFF">
                    <tspan x="57" y="38">RUN</tspan>
                </text>
                <g id="play_arrow-24px" transform="translate(10.000000, 9.000000)">
                    <polygon id="Path" points="0 0 41 0 41 41 0 41"></polygon>
                    <polygon id="Path" fill="#FFFFFF" fill-rule="nonzero" points="14 9 14 33 33 21"></polygon>
                </g>
            </g>
        </g>
    </g>
</svg>