<?xml version="1.0" encoding="UTF-8"?>
<svg width="33px" height="33px" viewBox="0 0 33 33" version="1.1" xmlns="http://www.w3.org/2000/svg" xmlns:xlink="http://www.w3.org/1999/xlink">
    <!-- Generator: Sketch 64 (93537) - https://sketch.com -->
    <title>person-24px</title>
    <desc>Created with Sketch.</desc>
    <g id="Page-1" stroke="none" stroke-width="1" fill="none" fill-rule="evenodd">
        <g id="TONY-AI---Dashboard" transform="translate(-1990.000000, -41.000000)">
            <g id="person-24px" transform="translate(1982.000000, 33.000000)">
                <polygon id="Path" points="0 0 49 0 49 49 0 49"></polygon>
                <path d="M24.5,24.5 C29.058125,24.5 32.75,20.808125 32.75,16.25 C32.75,11.691875 29.058125,8 24.5,8 C19.941875,8 16.25,11.691875 16.25,16.25 C16.25,20.808125 19.941875,24.5 24.5,24.5 Z M24.5,28.625 C18.993125,28.625 8,31.38875 8,36.875 L8,41 L41,41 L41,36.875 C41,31.38875 30.006875,28.625 24.5,28.625 Z" id="Shape" fill="#8792A2" fill-rule="nonzero"></path>
            </g>
        </g>
    </g>
</svg>